<svg width="62" height="72" viewBox="0 0 62 72" fill="none" xmlns="http://www.w3.org/2000/svg">
<path d="M1.09856 38.6188C1.45241 38.9966 1.74628 39.3504 2.08813 39.6563C2.33403 39.8782 2.37002 40.0641 2.25007 40.382C1.77028 41.6115 1.75228 42.8649 2.10613 44.1424C2.6339 46.0556 4.87694 48.5865 7.79169 48.6824C9.51894 48.7424 11.0003 48.1667 12.2298 46.9372C15.2645 43.9025 18.3052 40.8618 21.3399 37.8271C21.8077 37.3593 22.2755 36.8975 22.7373 36.4297C23.2231 35.9379 23.2291 36.0459 22.7553 35.5721C20.974 33.7908 19.1988 32.0096 17.4175 30.2344C17.3456 30.1624 17.2796 30.0904 17.2016 30.0245C17.0277 29.8805 17.0097 29.7546 17.1837 29.5926C17.4595 29.3348 17.7174 29.0529 17.9933 28.789C18.2812 28.5071 18.2932 28.5071 18.599 28.807C19.7745 29.9765 20.944 31.152 22.1195 32.3215C23.2051 33.407 24.2966 34.4985 25.3821 35.5841C25.8379 36.0399 25.8559 35.9319 25.3941 36.3997C21.8077 39.9862 18.2212 43.5786 14.6287 47.1651C14.2209 47.5729 13.8131 47.9927 13.3933 48.3886C10.4365 51.2014 5.93848 51.2553 2.89778 48.5265C1.48839 47.261 0.480831 45.7677 0.132981 43.8785C-0.19088 42.1093 0.0789953 40.424 0.918634 38.8287C0.948622 38.7807 0.990604 38.7387 1.09856 38.6188Z" fill="#0A4F58"/>
<path d="M43.7461 43.4467C43.5242 43.3627 43.4223 43.2068 43.2963 43.0809C41.0773 40.8618 38.8582 38.6428 36.6452 36.4297C36.6032 36.3877 36.5612 36.3457 36.5192 36.3038C36.2134 35.9859 36.2134 35.9799 36.5432 35.656C39.314 32.8852 42.0789 30.1204 44.8497 27.3496C46.0491 26.1501 47.2486 24.9446 48.4601 23.7512C51.5428 20.6985 56.2028 20.6805 59.3454 23.6852C60.7009 24.9806 61.6364 26.492 61.9123 28.3692C62.1582 30.0604 61.8883 31.6678 61.0727 33.1791C61.0487 33.2271 61.0007 33.2691 60.8988 33.401C60.5089 32.9752 60.1551 32.5674 59.7772 32.1895C59.5853 31.9976 59.6693 31.8357 59.7413 31.6498C60.2031 30.4563 60.2511 29.2448 59.9452 28.0033C59.3874 25.7843 56.8745 23.1934 53.8398 23.2953C52.2745 23.3493 50.9191 23.9011 49.8095 25.0106C47.3206 27.4935 44.8377 29.9825 42.3487 32.4654C41.2872 33.527 40.2256 34.5825 39.1701 35.644C38.8283 35.9859 38.8283 35.9919 39.1701 36.3337C40.9633 38.127 42.7566 39.9202 44.5498 41.7134C44.6457 41.8094 44.7417 41.9173 44.8437 42.0073C44.9756 42.1333 44.9576 42.2352 44.8377 42.3612C44.4598 42.733 44.1 43.0988 43.7461 43.4467Z" fill="#0A4F58"/>
<path d="M33.6168 65.835C33.9947 65.4932 34.3845 65.1573 34.7563 64.7915C34.9303 64.6236 35.0862 64.6116 35.2901 64.6955C35.6799 64.8575 36.0818 64.9714 36.4956 65.0374C38.4208 65.3433 40.082 64.7975 41.5094 63.484C42.427 62.6444 43.1647 61.6788 43.4646 60.4613C44.0103 58.2723 43.5066 56.3471 41.9112 54.7338C39.9261 52.7307 37.929 50.7515 35.9378 48.7604C34.4265 47.249 32.9151 45.7377 31.4038 44.2263C31.3198 44.1424 31.2298 44.0644 31.1459 43.9744C31.0199 43.8365 30.912 43.8665 30.798 43.9924C30.7021 44.0944 30.6001 44.1903 30.4982 44.2863C28.8009 45.9836 27.1096 47.6748 25.4123 49.3721C25.3164 49.4681 25.2084 49.564 25.0945 49.672C24.6267 49.2762 24.2188 48.8443 23.829 48.4185C23.865 48.2686 23.967 48.1966 24.0509 48.1127C26.24 45.9236 28.429 43.7345 30.6241 41.5455C30.9839 41.1856 30.9899 41.1916 31.3558 41.5575C35.2961 45.4978 39.2484 49.4321 43.1827 53.3844C46.3314 56.551 46.3074 61.253 43.1767 64.4376C41.9352 65.7031 40.4959 66.5787 38.7386 66.8606C37.0533 67.1365 35.44 66.8846 33.9107 66.0989C33.8567 66.0689 33.8087 66.0389 33.7607 66.003C33.7368 65.991 33.7188 65.955 33.6168 65.835Z" fill="#0A4F58"/>
<path d="M28.3568 6.10673C28.0029 6.44259 27.6611 6.72446 27.3672 7.04832C27.1153 7.32421 26.8934 7.37219 26.5396 7.23424C25.0942 6.68248 23.6428 6.70647 22.2214 7.3302C20.1883 8.22382 18.1132 10.5208 18.2991 13.3876C18.401 14.9109 19.0008 16.2004 20.0743 17.2739C22.2814 19.475 24.4824 21.682 26.6835 23.8831C27.9549 25.1545 29.2264 26.426 30.4979 27.6975C31.0436 28.2432 30.9177 28.2432 31.4394 27.7214C33.0767 26.0841 34.714 24.4409 36.3513 22.8036C36.4473 22.7076 36.5613 22.6116 36.6452 22.5037C36.8191 22.2878 36.9631 22.3418 37.125 22.5217C37.3829 22.7976 37.6468 23.0734 37.9287 23.3253C38.1446 23.5172 38.1326 23.6552 37.9227 23.8531C37.2749 24.4768 36.6452 25.1186 36.0095 25.7543C34.4681 27.2956 32.9328 28.837 31.3915 30.3723C30.9117 30.8521 31.0076 30.8281 30.5758 30.3963C26.6175 26.444 22.6592 22.4917 18.7129 18.5274C15.6962 15.4987 15.6662 10.8447 18.593 7.73203C19.8464 6.39461 21.3038 5.44102 23.127 5.12315C24.8783 4.81728 26.5455 5.08117 28.1169 5.91481C28.1888 5.9448 28.2308 5.99278 28.3568 6.10673Z" fill="#0A4F58"/>
<path d="M18.5748 53.6543C19.0126 54.0921 19.4204 54.4999 19.8463 54.9258C19.7563 55.0397 19.6603 55.1656 19.5644 55.2916C17.7112 57.6966 17.9091 60.8632 20.0262 63.0523C20.9978 64.0538 22.1013 64.7975 23.4987 65.0314C25.4958 65.3613 27.2231 64.8155 28.6565 63.4001C30.4077 61.6789 32.135 59.9276 33.8742 58.1883C34.8758 57.1868 35.8774 56.1792 36.8849 55.1776C37.1788 54.8838 37.1848 54.8898 37.4907 55.1776C37.8205 55.4955 38.1504 55.8074 38.4622 56.1012C38.3723 56.3591 38.2164 56.4551 38.0904 56.581C35.3916 59.2799 32.6987 61.9847 29.9939 64.6776C26.9712 67.6883 22.2932 67.7362 19.1865 64.8215C17.8371 63.55 16.8655 62.0747 16.5717 60.2215C16.1878 57.7925 16.7936 55.6274 18.4309 53.7682C18.4668 53.7323 18.5148 53.7023 18.5748 53.6543Z" fill="#0A4F58"/>
<path d="M43.3804 18.4134C43.0026 18.0176 42.6847 17.6578 42.3368 17.3279C42.1209 17.13 42.1449 16.986 42.3249 16.7821C42.8466 16.1884 43.2005 15.4987 43.4284 14.743C43.8182 13.4356 43.7642 12.1401 43.2484 10.8747C42.4748 8.96749 40.1718 6.67647 37.1911 6.8564C35.6677 6.94636 34.3723 7.52211 33.2927 8.60165C31.9913 9.89709 30.6898 11.1985 29.3944 12.5C27.979 13.9154 26.5696 15.3248 25.1542 16.7401C24.7524 17.142 24.8184 17.118 24.4225 16.7282C24.1826 16.4883 23.9487 16.2424 23.6969 16.0085C23.5169 15.8465 23.5349 15.7146 23.7088 15.5707C23.7868 15.5047 23.8528 15.4267 23.9188 15.3607C26.6056 12.6739 29.2864 9.99305 31.9733 7.3062C33.0888 6.19068 34.4142 5.447 35.9736 5.15912C37.8088 4.81727 39.578 5.02118 41.1853 5.98077C43.5063 7.36618 45.0957 9.32134 45.4555 12.0861C45.7674 14.4731 45.0417 16.5362 43.3804 18.4134Z" fill="#0A4F58"/>
<path d="M12.1578 42.1872C11.744 42.589 11.3782 42.9249 11.0303 43.2787C10.8324 43.4826 10.7124 43.4166 10.5505 43.2487C9.6509 42.3371 8.74529 41.4375 7.83968 40.5319C6.00447 38.6967 4.16325 36.8555 2.32804 35.0203C1.21252 33.9047 0.462844 32.5853 0.16897 31.02C-0.22686 28.8969 0.132994 26.9117 1.39245 25.1485C2.73588 23.2593 4.48712 21.9219 6.84411 21.556C8.51139 21.2982 10.1067 21.5321 11.6121 22.3117C11.702 22.3597 11.792 22.4017 11.852 22.5156C11.5341 22.9414 11.1083 23.2773 10.7424 23.6731C10.5625 23.871 10.3886 23.7751 10.1967 23.7031C9.50097 23.4332 8.78128 23.2833 8.0316 23.3013C6.55623 23.3313 5.26078 23.8291 4.15726 24.8126C3.1197 25.7362 2.29806 26.8038 2.00419 28.1892C1.56638 30.2763 2.05817 32.1175 3.56952 33.6468C5.69261 35.7939 7.83369 37.917 9.96877 40.0521C10.6765 40.7538 11.3962 41.4435 12.1578 42.1872Z" fill="#0A4F58"/>
<path d="M50.0852 49.504C50.2411 49.3361 50.3491 49.2162 50.4571 49.1022C50.7509 48.8083 51.0088 48.4185 51.3627 48.2446C51.7465 48.0647 52.1363 48.4365 52.5382 48.5205C54.4394 48.9343 56.1486 48.5504 57.648 47.315C58.5956 46.5293 59.4052 45.6177 59.7951 44.4182C60.5327 42.1512 60.1189 40.1001 58.4576 38.3848C56.3045 36.1658 54.0855 34.0007 51.9024 31.8116C51.3207 31.2299 50.7509 30.6421 50.1632 30.0784C49.9353 29.8625 49.9233 29.7125 50.1632 29.5026C50.511 29.2028 50.7869 28.8309 51.1588 28.561C51.5906 28.753 51.8485 29.1428 52.1663 29.4606C54.7032 31.9796 57.2281 34.5105 59.7531 37.0414C60.8986 38.1929 61.6123 39.5723 61.8702 41.1796C62.158 42.9549 61.9181 44.6641 60.9945 46.2055C59.6271 48.4845 57.702 50.0438 54.9971 50.4396C53.2819 50.6975 51.6625 50.3857 50.0852 49.504Z" fill="#0A4F58"/>
<path d="M18.5632 23.3193C17.4297 24.4528 16.3682 25.5084 15.3066 26.5639C13.0756 28.795 10.8445 31.026 8.61348 33.2511C8.26563 33.5989 8.31961 33.6589 7.92978 33.2691C7.67789 33.0172 7.426 32.7533 7.16211 32.5074C6.98818 32.3455 7.00018 32.2135 7.1741 32.0636C7.29405 31.9616 7.402 31.8417 7.51595 31.7277C10.6226 28.6211 13.7293 25.5204 16.836 22.4137C16.8899 22.3597 16.9499 22.3058 17.0039 22.2458C17.1478 22.0779 17.2738 22.0539 17.4417 22.2338C17.7955 22.5996 18.1614 22.9355 18.5632 23.3193Z" fill="#0A4F58"/>
<path d="M53.7619 38.4628C54.1637 38.8526 54.5776 39.2544 54.9614 39.6323C51.5549 43.0508 48.1603 46.4573 44.7298 49.8939C44.304 49.54 43.9082 49.1022 43.5243 48.7004C46.9429 45.2818 50.3434 41.8813 53.7619 38.4628Z" fill="#0A4F58"/>
</svg>
